<mxfile host="app.diagrams.net" modified="2020-11-06T09:50:15.002Z" agent="5.0 (Macintosh; Intel Mac OS X 10_14_6) AppleWebKit/537.36 (KHTML, like Gecko) Chrome/86.0.4240.183 Safari/537.36" etag="NR8HnMeeLege4ONaeTEU" version="13.9.2" type="github">
  <diagram id="fGE-HDQYiMsjhzgaJYEH" name="Page-1">
    <mxGraphModel dx="1520" dy="659" grid="1" gridSize="10" guides="1" tooltips="1" connect="1" arrows="1" fold="1" page="1" pageScale="1" pageWidth="827" pageHeight="1169" math="0" shadow="0">
      <root>
        <mxCell id="0" />
        <mxCell id="1" parent="0" />
        <mxCell id="JVU9-MaIbeyiOLwyJrKp-1" value="" style="rounded=0;whiteSpace=wrap;html=1;" vertex="1" parent="1">
          <mxGeometry x="160" y="240" width="190" height="250" as="geometry" />
        </mxCell>
        <mxCell id="JVU9-MaIbeyiOLwyJrKp-2" value="" style="rounded=0;whiteSpace=wrap;html=1;" vertex="1" parent="1">
          <mxGeometry x="480" y="230" width="190" height="250" as="geometry" />
        </mxCell>
        <mxCell id="JVU9-MaIbeyiOLwyJrKp-3" value="中心机房（HZ）" style="text;html=1;strokeColor=none;fillColor=none;align=center;verticalAlign=middle;whiteSpace=wrap;rounded=0;" vertex="1" parent="1">
          <mxGeometry x="212.5" y="245" width="70" height="30" as="geometry" />
        </mxCell>
        <mxCell id="JVU9-MaIbeyiOLwyJrKp-4" value="单元机房&lt;br&gt;（SH）" style="text;html=1;strokeColor=none;fillColor=none;align=center;verticalAlign=middle;whiteSpace=wrap;rounded=0;" vertex="1" parent="1">
          <mxGeometry x="545" y="245" width="60" height="20" as="geometry" />
        </mxCell>
        <mxCell id="JVU9-MaIbeyiOLwyJrKp-5" value="AppB" style="ellipse;whiteSpace=wrap;html=1;fillColor=#9999FF;" vertex="1" parent="1">
          <mxGeometry x="212.5" y="410" width="75" height="50" as="geometry" />
        </mxCell>
        <mxCell id="JVU9-MaIbeyiOLwyJrKp-6" value="" style="endArrow=classic;html=1;exitX=0;exitY=0.5;exitDx=0;exitDy=0;" edge="1" parent="1" source="JVU9-MaIbeyiOLwyJrKp-11">
          <mxGeometry width="50" height="50" relative="1" as="geometry">
            <mxPoint x="540.0636199040082" y="333.59235247680795" as="sourcePoint" />
            <mxPoint x="290" y="430" as="targetPoint" />
          </mxGeometry>
        </mxCell>
        <mxCell id="JVU9-MaIbeyiOLwyJrKp-17" value="{region=HZ}" style="edgeLabel;html=1;align=center;verticalAlign=middle;resizable=0;points=[];" vertex="1" connectable="0" parent="JVU9-MaIbeyiOLwyJrKp-6">
          <mxGeometry x="-0.4052" relative="1" as="geometry">
            <mxPoint x="35.75" y="-19.59" as="offset" />
          </mxGeometry>
        </mxCell>
        <mxCell id="JVU9-MaIbeyiOLwyJrKp-7" value="RPC跨机房调用" style="text;html=1;align=center;verticalAlign=middle;resizable=0;points=[];autosize=1;" vertex="1" parent="1">
          <mxGeometry x="364" y="370" width="100" height="20" as="geometry" />
        </mxCell>
        <mxCell id="JVU9-MaIbeyiOLwyJrKp-8" value="AppB" style="ellipse;whiteSpace=wrap;html=1;fillColor=#9999FF;" vertex="1" parent="1">
          <mxGeometry x="537.5" y="410" width="75" height="50" as="geometry" />
        </mxCell>
        <mxCell id="JVU9-MaIbeyiOLwyJrKp-9" value="1.AppA根据逻辑查询路由服务获取所在机房&lt;br&gt;2.AppA把机房信息传给SOA框架&lt;br&gt;3.由SOA框架选择节点" style="ellipse;shape=cloud;whiteSpace=wrap;html=1;" vertex="1" parent="1">
          <mxGeometry x="710" y="250" width="350" height="170" as="geometry" />
        </mxCell>
        <mxCell id="JVU9-MaIbeyiOLwyJrKp-10" value="" style="endArrow=none;dashed=1;html=1;dashPattern=1 3;strokeWidth=2;entryX=0.108;entryY=0.488;entryDx=0;entryDy=0;entryPerimeter=0;exitX=1;exitY=0.5;exitDx=0;exitDy=0;" edge="1" parent="1" source="JVU9-MaIbeyiOLwyJrKp-11" target="JVU9-MaIbeyiOLwyJrKp-9">
          <mxGeometry width="50" height="50" relative="1" as="geometry">
            <mxPoint x="650" y="320" as="sourcePoint" />
            <mxPoint x="700" y="320" as="targetPoint" />
            <Array as="points">
              <mxPoint x="660" y="320" />
            </Array>
          </mxGeometry>
        </mxCell>
        <mxCell id="JVU9-MaIbeyiOLwyJrKp-11" value="" style="rounded=1;whiteSpace=wrap;html=1;fillColor=#FFCCFF;" vertex="1" parent="1">
          <mxGeometry x="537.5" y="300" width="102.5" height="60" as="geometry" />
        </mxCell>
        <mxCell id="JVU9-MaIbeyiOLwyJrKp-12" value="AppA" style="text;html=1;strokeColor=none;fillColor=none;align=center;verticalAlign=middle;whiteSpace=wrap;rounded=0;" vertex="1" parent="1">
          <mxGeometry x="565" y="300" width="40" height="20" as="geometry" />
        </mxCell>
        <mxCell id="JVU9-MaIbeyiOLwyJrKp-13" value="&lt;span&gt;region=HZ&lt;br&gt;&lt;/span&gt;" style="rounded=0;whiteSpace=wrap;html=1;fillColor=#FF99CC;" vertex="1" parent="1">
          <mxGeometry x="537.5" y="340" width="102.5" height="20" as="geometry" />
        </mxCell>
        <mxCell id="JVU9-MaIbeyiOLwyJrKp-14" value="" style="rounded=1;whiteSpace=wrap;html=1;fillColor=#FFCCFF;" vertex="1" parent="1">
          <mxGeometry x="198.75" y="290" width="102.5" height="60" as="geometry" />
        </mxCell>
        <mxCell id="JVU9-MaIbeyiOLwyJrKp-15" value="region=?" style="rounded=0;whiteSpace=wrap;html=1;fillColor=#FF99CC;" vertex="1" parent="1">
          <mxGeometry x="198.75" y="330" width="102.5" height="20" as="geometry" />
        </mxCell>
        <mxCell id="JVU9-MaIbeyiOLwyJrKp-16" value="AppA" style="text;html=1;strokeColor=none;fillColor=none;align=center;verticalAlign=middle;whiteSpace=wrap;rounded=0;" vertex="1" parent="1">
          <mxGeometry x="230" y="290" width="40" height="20" as="geometry" />
        </mxCell>
      </root>
    </mxGraphModel>
  </diagram>
</mxfile>
